<svg width="342" height="50" viewBox="0 0 342 50" fill="none" xmlns="http://www.w3.org/2000/svg">
<path d="M323.322 4.10715C322.981 7.07896 322.873 10.7628 322.997 15.1586C322.997 15.4062 322.997 15.6694 322.997 15.948C323.028 16.2266 323.043 16.5981 323.043 17.0624C323.074 17.4958 323.089 17.9137 323.089 18.3162C323.213 21.5356 323.275 23.9502 323.275 25.56C323.275 26.6125 323.213 28.2067 323.089 30.3427C323.059 30.6523 323.028 31.0083 322.997 31.4107C322.966 31.7822 322.95 32.0144 322.95 32.1072C322.826 34.5528 322.873 36.534 323.089 38.0509C323.213 38.8557 323.043 39.5832 322.579 40.2333C322.114 40.9144 321.48 41.3168 320.675 41.4406C319.87 41.5954 319.127 41.4251 318.446 40.9298C317.765 40.4655 317.363 39.8309 317.239 39.026C316.929 37.2924 316.852 34.8778 317.007 31.7822C317.068 31.0392 317.115 30.4356 317.146 29.9713C317.27 27.8972 317.332 26.4267 317.332 25.56C317.332 24.4455 317.285 22.1083 317.192 18.5483C317.161 17.9602 317.13 17.3255 317.099 16.6445C317.068 15.9635 317.053 15.5301 317.053 15.3443C316.929 10.577 317.053 6.58366 317.424 3.36419C317.517 2.55932 317.889 1.90924 318.539 1.41393C319.189 0.887676 319.932 0.670981 320.768 0.763849C321.573 0.856719 322.223 1.2282 322.718 1.87828C323.213 2.52837 323.415 3.27132 323.322 4.10715ZM340.828 4.89653C340.58 5.14419 338.614 7.9767 334.93 13.3941L334.884 13.4405C334.884 13.4715 334.884 13.5024 334.884 13.5334C334.42 14.1835 333.723 15.205 332.794 16.5981C331.866 17.9602 331.169 18.9817 330.705 19.6628C330.426 20.1271 330.148 20.545 329.869 20.9165C330.271 21.5666 330.535 21.969 330.658 22.1238C331.277 23.0525 332.562 24.9254 334.512 27.7424C334.698 27.99 335.302 28.8413 336.323 30.2963C337.376 31.7203 338.134 32.7573 338.599 33.4074C338.753 33.5932 338.939 33.8408 339.156 34.1504C339.373 34.429 339.543 34.6766 339.667 34.8933C339.821 35.0791 339.961 35.2338 340.085 35.3577C340.146 35.4505 340.224 35.5744 340.317 35.7292C340.441 35.853 340.518 35.9304 340.549 35.9613L340.688 36.1006C341.276 36.6888 341.57 37.4008 341.57 38.2366C341.57 39.0415 341.276 39.738 340.688 40.3262C340.1 40.9144 339.388 41.2084 338.552 41.2084C337.747 41.2084 337.051 40.9144 336.463 40.3262C336.184 40.0476 335.302 38.9177 333.816 36.9365C332.825 35.6053 331.448 33.686 329.683 31.1786C327.392 27.9281 326.061 26.0088 325.69 25.4207C325.009 24.3991 324.56 23.7026 324.343 23.3311C324.219 23.1144 324.065 22.8513 323.879 22.5417C323.6 22.0464 323.445 21.5821 323.415 21.1487C323.322 20.4057 323.492 19.7401 323.925 19.152V19.1055C323.987 19.0436 324.018 18.9972 324.018 18.9662C324.204 18.7186 324.343 18.5174 324.436 18.3626C324.529 18.2388 324.73 17.9447 325.04 17.4803C325.349 17.016 325.597 16.6445 325.783 16.3659C326.34 15.5301 327.114 14.3692 328.104 12.8833C329.126 11.3664 329.73 10.4687 329.915 10.1901C329.977 10.1282 330.008 10.0817 330.008 10.0508C333.754 4.54054 335.828 1.55324 336.23 1.08889C336.757 0.438807 337.422 0.0828079 338.227 0.0208958C339.063 -0.0719741 339.79 0.144721 340.41 0.670981C341.06 1.19724 341.416 1.87828 341.478 2.7141C341.57 3.51897 341.354 4.24645 340.828 4.89653Z" fill="#F5F2EE"/>
<path d="M289.12 3.22486C289.522 6.5372 289.723 10.608 289.723 15.4372C289.723 18.5328 289.692 21.3963 289.63 24.0276C289.63 24.3372 289.615 24.7396 289.584 25.2349C289.584 25.7302 289.584 26.0707 289.584 26.2565C290.76 24.7705 292.68 22.4333 295.342 19.2448C295.682 18.7495 296.24 18.0685 297.013 17.2017C297.447 16.6754 298.004 16.0099 298.685 15.205C302.617 10.4068 305.604 6.42885 307.647 3.2713C307.678 3.24034 307.709 3.1939 307.74 3.13199C307.802 3.03912 307.848 2.97721 307.879 2.94625C308.096 2.63669 308.421 2.37356 308.854 2.15686C309.226 1.97112 309.628 1.87825 310.062 1.87825C310.402 1.81634 310.743 1.86278 311.083 2.01756C311.424 2.11043 311.749 2.28069 312.058 2.52834C312.368 2.74504 312.631 3.07008 312.848 3.50347C313.033 3.84399 313.126 4.24642 313.126 4.71077C313.188 4.80364 313.188 4.92746 313.126 5.08225C313.126 5.20607 313.111 5.40729 313.08 5.6859C313.08 5.96451 313.064 6.27407 313.033 6.61459C313.002 6.92416 312.972 7.28015 312.941 7.68259V7.86833C312.848 8.79702 312.77 9.83406 312.708 10.9794C312.306 18.8114 312.105 27.8971 312.105 38.2366C312.105 39.0724 311.811 39.7689 311.222 40.3262C310.665 40.9143 309.969 41.2084 309.133 41.2084C308.328 41.2084 307.632 40.9143 307.043 40.3262C306.455 39.7689 306.161 39.0724 306.161 38.2366C306.161 29.6617 306.3 21.8761 306.579 14.88C305.465 16.3349 304.35 17.7125 303.236 19.0126C302.555 19.8175 301.997 20.4831 301.564 21.0093C300.79 21.8761 300.233 22.5572 299.892 23.0525C297.416 25.9624 295.543 28.2531 294.274 29.9248C292.726 31.8441 291.023 34.1813 289.166 36.9364L289.073 37.1222C288.764 37.4936 288.454 37.7568 288.144 37.9116C287.897 38.0973 287.525 38.2211 287.03 38.283C286.628 38.3449 286.256 38.3295 285.916 38.2366C285.668 38.1747 285.327 38.0199 284.894 37.7723C284.523 37.4317 284.259 37.1222 284.105 36.8436C283.919 36.5649 283.795 36.178 283.733 35.6827C283.702 35.6517 283.687 35.5898 283.687 35.497C283.625 34.5683 283.594 32.8192 283.594 30.2498C283.594 28.5163 283.625 26.4112 283.687 23.9347C283.749 21.3344 283.78 18.5019 283.78 15.4372C283.78 10.9175 283.594 7.07894 283.222 3.92138C283.13 3.11651 283.331 2.38904 283.826 1.73895C284.352 1.08887 285.018 0.717389 285.823 0.624521C286.628 0.500695 287.355 0.701911 288.005 1.22817C288.655 1.72347 289.027 2.38904 289.12 3.22486Z" fill="#F5F2EE"/>
<path d="M256.585 4.15354C256.523 6.84675 256.492 11.2116 256.492 17.2481V17.3874C257.823 17.3255 259.835 17.2636 262.529 17.2017C264.634 17.1707 267.574 17.1707 271.351 17.2017H272.326H272.93C272.682 12.4653 272.388 8.23979 272.048 4.52502C271.986 3.68919 272.218 2.96172 272.744 2.34259C273.27 1.6925 273.936 1.3365 274.741 1.27459C275.546 1.21268 276.258 1.44485 276.877 1.97111C277.527 2.49737 277.883 3.16293 277.945 3.9678C278.904 14.7406 279.384 26.0243 279.384 37.8187C279.384 38.6545 279.09 39.351 278.502 39.9082C277.945 40.4964 277.248 40.7905 276.412 40.7905C275.608 40.7905 274.911 40.4964 274.323 39.9082C273.735 39.351 273.441 38.6545 273.441 37.8187C273.441 32.9585 273.348 28.0674 273.162 23.1453H272.28H271.351C267.605 23.1144 264.695 23.1144 262.621 23.1453C259.928 23.2072 257.916 23.2691 256.585 23.3311V24.4455C256.647 28.377 256.678 32.4632 256.678 36.7042C256.678 37.5401 256.384 38.2521 255.795 38.8402C255.238 39.3974 254.542 39.6761 253.706 39.6761C252.901 39.6761 252.205 39.3974 251.616 38.8402C251.028 38.2521 250.734 37.5401 250.734 36.7042C250.734 32.4942 250.703 28.4389 250.641 24.5384C250.579 19.9258 250.548 17.5112 250.548 17.2945C250.517 12.9297 250.548 8.50292 250.641 4.01423C250.672 3.20937 250.982 2.52833 251.57 1.97111C252.158 1.38294 252.87 1.10433 253.706 1.13529C254.511 1.13529 255.192 1.44485 255.749 2.06398C256.337 2.65215 256.616 3.34867 256.585 4.15354Z" fill="#F5F2EE"/>
<path d="M234.698 7.54326C234.388 7.54326 233.846 7.57421 233.073 7.63613C232.33 7.69804 231.695 7.74448 231.169 7.77543C230.302 7.83734 229.807 7.8683 229.683 7.8683C227.856 7.96117 226.432 8.06952 225.411 8.19334C225.411 9.46256 225.349 11.2735 225.225 13.6262C225.039 16.9385 224.668 20.0342 224.111 22.9131C223.523 26.2874 222.609 29.2747 221.371 31.875C220.938 32.7728 220.551 33.5157 220.21 34.1039H222.625H224.296C227.578 34.1039 229.791 34.0884 230.937 34.0574C232.206 34.0265 233.382 33.9801 234.466 33.9181C234.373 33.0823 234.295 31.7202 234.233 29.8319C234.202 27.7578 234.233 24.7086 234.326 20.6843C234.326 20.4985 234.342 19.8794 234.373 18.8269C234.404 17.7744 234.435 16.8766 234.466 16.1337C234.589 12.2332 234.651 9.60186 234.651 8.23978C234.651 8.14691 234.651 8.02308 234.651 7.8683C234.682 7.71352 234.698 7.60517 234.698 7.54326ZM240.595 39.5832H239.991C238.444 39.5832 237.391 39.6296 236.834 39.7225C235.286 39.8773 233.367 39.9701 231.076 40.0011C229.9 40.032 227.64 40.0475 224.296 40.0475H222.671C219.297 40.0475 216.573 40.094 214.499 40.1868C214.437 41.1155 214.406 41.7811 214.406 42.1835C214.406 43.8242 214.545 45.2018 214.824 46.3162C215.04 47.0901 214.932 47.8331 214.499 48.5451C214.096 49.2571 213.493 49.7059 212.688 49.8917C211.883 50.1084 211.124 50 210.412 49.5666C209.731 49.1642 209.283 48.5605 209.066 47.7557C208.663 46.1459 208.462 44.2886 208.462 42.1835C208.462 41.2548 208.509 40.2023 208.602 39.026C208.354 38.6235 208.199 38.1592 208.137 37.6329C208.075 36.8281 208.307 36.1161 208.834 35.4969C209.36 34.8778 210.025 34.5218 210.83 34.4289C211.202 34.3361 211.573 34.3051 211.945 34.3361H212.177H212.223C212.254 34.3361 212.27 34.3206 212.27 34.2896C215.118 32.1846 217.13 28.0209 218.306 21.7987C218.771 19.1984 219.096 16.3504 219.281 13.2547C219.436 10.5306 219.514 7.91473 219.514 5.40726C219.514 4.6024 219.792 3.90588 220.349 3.3177C220.938 2.72953 221.65 2.43545 222.485 2.43545C222.609 2.43545 222.826 2.4664 223.136 2.52831C224.343 2.34258 226.401 2.14136 229.311 1.92467C229.435 1.92467 229.931 1.89371 230.797 1.83179C233.243 1.67701 234.729 1.56867 235.255 1.50675H235.301H235.441C235.503 1.50675 235.58 1.50675 235.673 1.50675C235.766 1.4758 235.843 1.44484 235.905 1.41388H236.23C236.323 1.41388 236.462 1.41388 236.648 1.41388C236.834 1.38293 236.973 1.35197 237.066 1.32101C237.314 1.32101 237.499 1.33649 237.623 1.36745C237.747 1.36745 237.964 1.3984 238.273 1.46032C238.583 1.58414 238.815 1.69249 238.97 1.78536C239.496 2.09492 239.883 2.49736 240.131 2.99266C240.316 3.42605 240.44 3.90588 240.502 4.43214C240.564 4.86553 240.595 5.22152 240.595 5.50013C240.626 6.21213 240.626 7.1563 240.595 8.33265C240.595 9.69473 240.533 12.357 240.409 16.3194C240.378 17.0624 240.347 17.9601 240.316 19.0126C240.285 20.0651 240.27 20.6843 240.27 20.87C240.177 24.7705 240.146 27.7269 240.177 29.739C240.239 31.5964 240.316 32.8966 240.409 33.6395C240.966 33.6395 241.648 33.6705 242.452 33.7324C242.824 33.7634 243.242 33.8408 243.706 33.9646C243.985 34.0265 244.232 34.1194 244.449 34.2432C244.79 34.367 245.13 34.5992 245.471 34.9397C245.904 35.3731 246.198 35.8684 246.353 36.4256C246.415 36.6733 246.477 36.9828 246.539 37.3543C246.57 37.6639 246.585 38.1901 246.585 38.9331C246.523 40.45 246.446 41.6263 246.353 42.4621C246.291 42.8336 246.26 43.1586 246.26 43.4373C246.043 45.3875 245.935 46.5639 245.935 46.9663C245.935 47.7712 245.641 48.4677 245.053 49.0558C244.465 49.644 243.768 49.9381 242.963 49.9381C242.158 49.9381 241.462 49.644 240.874 49.0558C240.285 48.4677 239.991 47.7712 239.991 46.9663C239.991 46.8115 240.022 46.2079 240.084 45.1553C240.146 44.7219 240.193 44.3505 240.224 44.0409C240.224 44.0099 240.239 43.8242 240.27 43.4837C240.301 43.1432 240.316 42.9265 240.316 42.8336C240.378 42.3383 240.409 42.0287 240.409 41.9049C240.44 41.4406 240.502 40.6666 240.595 39.5832Z" fill="#F5F2EE"/>
<path d="M200.481 6.24311C198.5 6.30502 196.813 6.33598 195.42 6.33598H192.773C189.523 6.33598 187.093 6.38241 185.483 6.47528C184.926 6.53719 184.539 6.58363 184.322 6.61459V7.07893C184.322 8.19336 184.368 9.64832 184.461 11.4438C184.523 12.0629 184.57 12.713 184.601 13.394C184.601 13.7965 184.647 14.7407 184.74 16.2266C185.854 16.1646 186.768 16.1337 187.48 16.1337C187.603 16.1337 187.805 16.1492 188.083 16.1801C188.393 16.1801 188.671 16.1801 188.919 16.1801H190.498C191.334 16.1801 192.03 16.4742 192.587 17.0624C193.176 17.6506 193.47 18.3471 193.47 19.1519C193.47 19.9568 193.176 20.6533 192.587 21.2415C192.03 21.8297 191.334 22.1238 190.498 22.1238H188.873C188.625 22.1238 188.346 22.1238 188.037 22.1238C187.758 22.0928 187.572 22.0773 187.48 22.0773C186.706 22.0773 185.792 22.1083 184.74 22.1702L184.693 22.8667C184.632 25.3432 184.601 26.9994 184.601 27.8352C184.539 30.4975 184.554 32.4787 184.647 33.7789C184.678 33.9646 184.693 34.2277 184.693 34.5683C184.817 34.5683 185.003 34.5683 185.251 34.5683C185.529 34.5373 185.746 34.5218 185.901 34.5218C186.582 34.4289 187.015 34.3825 187.201 34.3825C187.263 34.3825 187.495 34.367 187.897 34.3361C188.3 34.3051 188.548 34.2896 188.64 34.2896C189.321 34.2277 189.708 34.1968 189.801 34.1968C190.266 34.1968 191.504 34.2587 193.516 34.3825C194.63 34.4754 195.466 34.5218 196.024 34.5218C198.438 34.6147 200.125 34.4754 201.085 34.1039C201.859 33.7943 202.617 33.8098 203.36 34.1503C204.103 34.4599 204.629 35.0016 204.939 35.7756C205.249 36.5185 205.233 37.2769 204.893 38.0508C204.583 38.7938 204.041 39.3201 203.267 39.6296C202.308 40.0011 201.069 40.2642 199.553 40.419C198.562 40.5119 197.308 40.5274 195.791 40.4655C195.668 40.4655 195.296 40.45 194.677 40.419C194.089 40.3881 193.562 40.3571 193.098 40.3261C191.241 40.2023 190.142 40.1404 189.801 40.1404C189.739 40.1404 189.662 40.1559 189.569 40.1868H189.105C188.64 40.2797 188.176 40.3261 187.712 40.3261C186.969 40.3881 186.504 40.419 186.319 40.419C185.607 40.4809 184.709 40.5119 183.625 40.5119C183.068 40.45 182.619 40.4035 182.279 40.3726C182.093 40.3416 181.815 40.2642 181.443 40.1404C180.948 39.9237 180.576 39.6915 180.329 39.4439C179.864 39.0724 179.508 38.5307 179.261 37.8187C179.199 37.602 179.106 37.215 178.982 36.6578C178.92 36.4102 178.827 35.5743 178.703 34.1503C178.611 32.6954 178.595 30.5749 178.657 27.7888C178.657 26.8601 178.688 25.1575 178.75 22.681C178.843 20.0806 178.889 18.6876 178.889 18.5019C178.889 17.9446 178.874 17.3565 178.843 16.7373C178.719 15.3753 178.657 14.3847 178.657 13.7655C178.626 13.2702 178.58 12.5892 178.518 11.7224C178.425 9.8031 178.378 8.25528 178.378 7.07893C178.378 6.80032 178.378 6.4598 178.378 6.05737C178.409 5.62398 178.425 5.32989 178.425 5.17511C178.518 4.30833 178.688 3.64277 178.936 3.17842C179.276 2.49738 179.833 1.94016 180.607 1.50677C181.103 1.25912 181.598 1.07338 182.093 0.949557C182.681 0.794775 183.672 0.670949 185.065 0.578079C186.675 0.454253 189.244 0.39234 192.773 0.39234H195.373C196.736 0.39234 198.345 0.361384 200.203 0.299471C201.008 0.268515 201.704 0.531645 202.292 1.08886C202.911 1.64608 203.252 2.32712 203.314 3.13199C203.345 3.93685 203.082 4.64885 202.524 5.26798C201.967 5.88711 201.286 6.21215 200.481 6.24311Z" fill="#F5F2EE"/>
<path d="M167.759 12.6511C165.406 10.8865 162.883 9.74116 160.19 9.2149C157.528 8.68864 155.082 8.84343 152.853 9.67925C150.717 10.4532 149.015 11.7688 147.745 13.6262C146.352 15.7003 145.656 18.2542 145.656 21.2879C145.656 23.1143 146.074 24.8634 146.909 26.535C147.838 28.3924 149.324 29.8783 151.367 30.9928C153.008 31.8595 155.345 32.6025 158.379 33.2216C160.05 33.5931 161.614 33.5157 163.069 32.9895C164.524 32.4322 165.685 31.4881 166.551 30.1569C167.016 29.4759 167.65 29.058 168.455 28.9032C169.26 28.7484 170.003 28.9032 170.684 29.3675C171.365 29.8009 171.783 30.4201 171.938 31.2249C172.093 32.0298 171.953 32.7728 171.52 33.4538C169.941 35.8374 167.851 37.5246 165.251 38.5152C162.682 39.5058 159.973 39.6915 157.125 39.0724C153.503 38.2675 150.671 37.3233 148.628 36.2399C145.439 34.5682 143.102 32.231 141.616 29.2282C140.347 26.6898 139.712 24.043 139.712 21.2879C139.712 17.0469 140.749 13.394 142.823 10.3293C144.804 7.41943 147.467 5.34535 150.81 4.10709C154.029 2.93075 157.466 2.68309 161.118 3.36413C164.771 4.01422 168.177 5.53109 171.334 7.91473C171.984 8.41004 172.371 9.06012 172.495 9.86499C172.619 10.6699 172.433 11.3973 171.938 12.0474C171.442 12.7285 170.792 13.1309 169.987 13.2547C169.183 13.3476 168.44 13.1464 167.759 12.6511Z" fill="#F5F2EE"/>
<path d="M132.915 6.24311C130.934 6.30502 129.247 6.33598 127.854 6.33598H125.207C121.957 6.33598 119.527 6.38241 117.917 6.47528C117.36 6.53719 116.973 6.58363 116.756 6.61459V7.07893C116.756 8.19336 116.802 9.64832 116.895 11.4438C116.957 12.0629 117.004 12.713 117.035 13.394C117.035 13.7965 117.081 14.7407 117.174 16.2266C118.288 16.1646 119.202 16.1337 119.914 16.1337C120.037 16.1337 120.239 16.1492 120.517 16.1801C120.827 16.1801 121.105 16.1801 121.353 16.1801H122.932C123.768 16.1801 124.464 16.4742 125.021 17.0624C125.609 17.6506 125.904 18.3471 125.904 19.1519C125.904 19.9568 125.609 20.6533 125.021 21.2415C124.464 21.8297 123.768 22.1238 122.932 22.1238H121.307C121.059 22.1238 120.78 22.1238 120.471 22.1238C120.192 22.0928 120.006 22.0773 119.914 22.0773C119.14 22.0773 118.226 22.1083 117.174 22.1702L117.127 22.8667C117.066 25.3432 117.035 26.9994 117.035 27.8352C116.973 30.4975 116.988 32.4787 117.081 33.7789C117.112 33.9646 117.127 34.2277 117.127 34.5683C117.251 34.5683 117.437 34.5683 117.685 34.5683C117.963 34.5373 118.18 34.5218 118.335 34.5218C119.016 34.4289 119.449 34.3825 119.635 34.3825C119.697 34.3825 119.929 34.367 120.331 34.3361C120.734 34.3051 120.982 34.2896 121.074 34.2896C121.755 34.2277 122.142 34.1968 122.235 34.1968C122.7 34.1968 123.938 34.2587 125.95 34.3825C127.064 34.4754 127.9 34.5218 128.457 34.5218C130.872 34.6147 132.559 34.4754 133.519 34.1039C134.293 33.7943 135.051 33.8098 135.794 34.1503C136.537 34.4599 137.063 35.0016 137.373 35.7756C137.683 36.5185 137.667 37.2769 137.326 38.0508C137.017 38.7938 136.475 39.3201 135.701 39.6296C134.742 40.0011 133.503 40.2642 131.987 40.419C130.996 40.5119 129.742 40.5274 128.225 40.4655C128.101 40.4655 127.73 40.45 127.111 40.419C126.523 40.3881 125.996 40.3571 125.532 40.3261C123.675 40.2023 122.576 40.1404 122.235 40.1404C122.173 40.1404 122.096 40.1559 122.003 40.1868H121.539C121.074 40.2797 120.61 40.3261 120.146 40.3261C119.403 40.3881 118.938 40.419 118.753 40.419C118.041 40.4809 117.143 40.5119 116.059 40.5119C115.502 40.45 115.053 40.4035 114.713 40.3726C114.527 40.3416 114.248 40.2642 113.877 40.1404C113.382 39.9237 113.01 39.6915 112.763 39.4439C112.298 39.0724 111.942 38.5307 111.695 37.8187C111.633 37.602 111.54 37.215 111.416 36.6578C111.354 36.4102 111.261 35.5743 111.137 34.1503C111.044 32.6954 111.029 30.5749 111.091 27.7888C111.091 26.8601 111.122 25.1575 111.184 22.681C111.277 20.0806 111.323 18.6876 111.323 18.5019C111.323 17.9446 111.308 17.3565 111.277 16.7373C111.153 15.3753 111.091 14.3847 111.091 13.7655C111.06 13.2702 111.014 12.5892 110.952 11.7224C110.859 9.8031 110.812 8.25528 110.812 7.07893C110.812 6.80032 110.812 6.4598 110.812 6.05737C110.843 5.62398 110.859 5.32989 110.859 5.17511C110.952 4.30833 111.122 3.64277 111.37 3.17842C111.71 2.49738 112.267 1.94016 113.041 1.50677C113.536 1.25912 114.032 1.07338 114.527 0.949557C115.115 0.794775 116.106 0.670949 117.499 0.578079C119.109 0.454253 121.678 0.39234 125.207 0.39234H127.807C129.169 0.39234 130.779 0.361384 132.637 0.299471C133.441 0.268515 134.138 0.531645 134.726 1.08886C135.345 1.64608 135.686 2.32712 135.748 3.13199C135.779 3.93685 135.516 4.64885 134.958 5.26798C134.401 5.88711 133.72 6.21215 132.915 6.24311Z" fill="#F5F2EE"/>
<path d="M89.9091 34.5218C92.9119 34.5528 95.4658 33.9646 97.5708 32.7573C99.7068 31.5191 100.899 30.0332 101.146 28.2996C101.332 26.7827 100.666 25.5135 99.1496 24.4919C97.0755 23.1608 94.0108 22.5881 89.9555 22.7739C90.1413 27.1697 90.1413 30.9154 89.9555 34.0111C89.9555 34.2277 89.9401 34.398 89.9091 34.5218ZM101.332 7.77547C100.589 7.80643 98.84 7.79095 96.0849 7.72904C95.7444 7.72904 95.3265 7.72904 94.8312 7.72904C94.3668 7.69808 94.0418 7.6826 93.8561 7.6826C91.751 7.62069 90.2187 7.63617 89.259 7.72904C89.259 8.19338 89.2745 8.7506 89.3055 9.40068C89.3674 10.0198 89.4138 10.8866 89.4448 12.001C89.5067 13.0845 89.5686 14.137 89.6305 15.1586C89.6305 15.592 89.6615 16.1492 89.7234 16.8302C95.0479 16.5826 99.2734 17.4803 102.4 19.5234C104.134 20.6688 105.403 22.0928 106.208 23.7954C107.013 25.4671 107.291 27.2316 107.043 29.089C106.796 30.8535 106.099 32.5097 104.954 34.0575C103.839 35.5744 102.369 36.859 100.543 37.9116C96.6421 40.1404 91.9832 40.9143 86.5658 40.2333C85.9157 40.2023 85.3121 39.9237 84.7549 39.3975C84.4453 39.057 84.1976 38.67 84.0119 38.2366C83.8881 37.958 83.7952 37.5091 83.7333 36.89C83.7023 36.4566 83.7333 35.8839 83.8262 35.1719C83.8262 35.0481 83.8571 34.8314 83.919 34.5218C83.919 34.4599 83.9345 34.3206 83.9655 34.1039L84.0119 33.8253C84.0119 33.7324 84.0274 33.6705 84.0583 33.6396C84.2131 30.7297 84.1667 26.3029 83.919 20.3593C83.8881 19.833 83.8416 19.0436 83.7797 17.9911C83.7488 16.9076 83.7178 16.0563 83.6869 15.4372C83.4392 11.2271 83.2999 7.93025 83.2689 5.54661C83.207 4.89652 83.3773 4.27739 83.7797 3.68922C84.0583 3.31774 84.3679 3.00818 84.7084 2.76053C85.1728 2.48192 85.6371 2.2807 86.1015 2.15688C86.6277 2.00209 87.3862 1.89375 88.3768 1.83183C89.9246 1.73896 91.782 1.70801 93.9489 1.73896C94.1347 1.73896 94.4752 1.75444 94.9705 1.7854C95.4658 1.7854 95.8837 1.7854 96.2242 1.7854C98.7936 1.84731 100.341 1.86279 100.868 1.83183C101.673 1.76992 102.385 2.00209 103.004 2.52835C103.654 3.05461 104.01 3.73565 104.072 4.57148C104.134 5.37635 103.886 6.10382 103.329 6.75391C102.802 7.37304 102.137 7.71356 101.332 7.77547Z" fill="#F5F2EE"/>
<path d="M70.6191 20.7307C70.4953 18.5947 70.0774 16.8457 69.3654 15.4836C68.6534 14.1215 67.4151 12.713 65.6506 11.2581C61.6263 7.94571 58.0663 6.50624 54.9707 6.93963C51.875 7.40397 49.0115 9.86501 46.3802 14.3227C44.0895 18.1613 43.0834 21.7059 43.362 24.9563C43.5477 26.8756 44.6622 28.6865 46.7053 30.3891C48.8722 32.1846 51.519 33.3919 54.6456 34.011C57.8651 34.6302 60.7131 34.4289 63.1896 33.4074C66.5162 31.6907 72.1391 37.3137 72.8647 36.5881C73.5902 35.8626 67.8443 30.3891 69.0868 27.3244C69.5511 26.1791 69.9071 25.2039 70.1548 24.3991C70.3715 23.5323 70.4798 22.6036 70.4798 21.613C70.4798 21.3034 70.5263 21.0093 70.6191 20.7307ZM76.4235 21.7987C76.4235 23.0989 76.2532 24.461 75.9127 25.885C75.6341 26.8446 75.2007 28.0674 74.6125 29.5533C74.0243 31.0392 81.027 39.6717 78.4876 42.2111C76.311 44.3877 67.0603 38.2297 65.4649 38.8867C61.7811 40.4035 57.7877 40.7286 53.4847 39.8618C49.3675 39.026 45.8385 37.3853 42.8976 34.9397C39.5543 32.1846 37.7434 29.0271 37.4648 25.4671C37.0623 20.9474 38.3316 16.2111 41.2724 11.2581C44.8015 5.22155 49.0734 1.83182 54.0884 1.08886C58.9176 0.345907 64.0254 2.20329 69.4118 6.66102C71.8883 8.70415 73.6683 10.7937 74.7518 12.9297C75.8353 15.0657 76.4389 17.6815 76.5628 20.7772C76.6247 21.1177 76.5782 21.4582 76.4235 21.7987Z" fill="#F5F2EE"/>
<path d="M28.0465 12.6511C25.6938 10.8865 23.1709 9.74116 20.4777 9.2149C17.8154 8.68864 15.3699 8.84343 13.141 9.67925C11.005 10.4532 9.30241 11.7688 8.0332 13.6262C6.64016 15.7003 5.94364 18.2542 5.94364 21.2879C5.94364 23.1143 6.36155 24.8634 7.19737 26.535C8.12607 28.3924 9.61197 29.8783 11.6551 30.9928C13.2958 31.8595 15.633 32.6025 18.6667 33.2216C20.3384 33.5931 21.9017 33.5157 23.3566 32.9895C24.8116 32.4322 25.9725 31.4881 26.8392 30.1569C27.3036 29.4759 27.9382 29.058 28.7431 28.9032C29.5479 28.7484 30.2909 28.9032 30.9719 29.3675C31.653 29.8009 32.0709 30.4201 32.2257 31.2249C32.3804 32.0298 32.2411 32.7728 31.8077 33.4538C30.229 35.8374 28.1394 37.5246 25.5391 38.5152C22.9697 39.5058 20.261 39.6915 17.413 39.0724C13.7911 38.2675 10.9586 37.3233 8.91545 36.2399C5.72694 34.5682 3.38973 32.231 1.90382 29.2282C0.634607 26.6898 0 24.043 0 21.2879C0 17.0469 1.03704 13.394 3.11112 10.3293C5.09233 7.41943 7.75459 5.34535 11.0979 4.10709C14.3174 2.93075 17.7535 2.68309 21.4064 3.36413C25.0592 4.01422 28.4644 5.53109 31.622 7.91473C32.2721 8.41004 32.659 9.06012 32.7829 9.86499C32.9067 10.6699 32.721 11.3973 32.2257 12.0474C31.7304 12.7285 31.0803 13.1309 30.2754 13.2547C29.4705 13.3476 28.7276 13.1464 28.0465 12.6511Z" fill="#F5F2EE"/>
</svg>
